Coordinates
version=1
nRows=14
nColumns=63
inDegrees=yes

Units are S.I. units (second, meters, Newtons, ...)
If the header above contains a line with 'inDegrees', this indicates whether rotational values are in degrees (yes) or radians (no).

endheader
time	pelvis_tilt	pelvis_list	pelvis_rotation	pelvis_tx	pelvis_ty	pelvis_tz	hip_flexion_r	hip_adduction_r	hip_rotation_r	knee_angle_r	knee_angle_r_beta	ankle_angle_r	subtalar_angle_r	mtp_angle_r	hip_flexion_l	hip_adduction_l	hip_rotation_l	knee_angle_l	knee_angle_l_beta	ankle_angle_l	subtalar_angle_l	mtp_angle_l	L5_S1_Flex_Ext	L5_S1_Lat_Bending	L5_S1_axial_rotation	L4_L5_Flex_Ext	L4_L5_Lat_Bending	L4_L5_axial_rotation	L3_L4_Flex_Ext	L3_L4_Lat_Bending	L3_L4_axial_rotation	L2_L3_Flex_Ext	L2_L3_Lat_Bending	L2_L3_axial_rotation	L1_L2_Flex_Ext	L1_L2_Lat_Bending	L1_L2_axial_rotation	L1_T12_Flex_Ext	L1_T12_Lat_Bending	L1_T12_axial_rotation	Abs_r3	Abs_r2	Abs_r1	Abs_t1	Abs_t2	neck_flexion	neck_bending	neck_rotation	arm_flex_r	arm_add_r	arm_rot_r	elbow_flex_r	pro_sup_r	wrist_flex_r	wrist_dev_r	arm_flex_l	arm_add_l	arm_rot_l	elbow_flex_l	pro_sup_l	wrist_flex_l	wrist_dev_l
3.779661	3.768434	-4.910174	98.336476	0.257391	0.747334	0.836646	1.759958	5.146198	-10.014110	10.345078	0.180556	32.666031	9.577142	0.000000	5.359401	-2.880720	4.503911	15.793676	0.275652	36.030069	-7.872848	0.000000	-0.200844	0.767956	-0.116987	-0.372987	1.021381	-0.124298	-0.329966	1.867208	-0.124298	-0.229544	1.867208	-0.102363	-0.186503	1.566016	-0.095052	-0.114762	1.189564	-0.087740	-1.434605	8.687272	-0.650645	0.000000	0.000000	8.673358	-3.541411	-3.110395	15.817499	-15.949551	55.094728	50.461020	69.014108	2.190480	2.049021	17.107668	-11.426831	62.405339	47.786798	70.082825	4.029780	-3.551330
3.796610	3.728961	-4.917013	98.697268	0.257603	0.747519	0.836823	1.876529	5.155374	-9.619272	10.434777	0.182121	32.602909	8.458014	0.000000	5.576180	-2.869304	4.508670	16.080416	0.280656	36.145450	-7.487797	0.000000	-0.198853	0.749983	-0.215638	-0.369290	0.997477	-0.229115	-0.326696	1.823508	-0.229115	-0.227269	1.823508	-0.188683	-0.184655	1.529365	-0.175206	-0.113625	1.161724	-0.161728	-1.420389	8.483956	-1.199313	0.000000	0.000000	8.411001	-3.045184	-3.078361	16.425406	-15.363510	60.559560	48.934374	68.920204	2.719645	1.291823	16.963531	-11.879191	61.143732	48.392905	75.310418	5.740729	-2.487909
3.813559	3.810296	-4.942627	99.080778	0.257389	0.747497	0.837185	2.073307	5.213091	-9.882588	10.606104	0.185111	32.764674	8.205242	0.000000	5.842670	-2.953721	4.590154	16.367410	0.285665	36.326770	-7.157670	0.000000	-0.198258	0.751150	-0.291967	-0.368185	0.999030	-0.310215	-0.325719	1.826347	-0.310215	-0.226589	1.826347	-0.255471	-0.184103	1.531745	-0.237223	-0.113285	1.163532	-0.218975	-1.416139	8.497161	-1.623831	0.000000	0.000000	8.298487	-2.703776	-3.173175	16.628126	-15.610670	60.632526	49.327581	72.413487	2.379139	1.817609	16.952515	-12.105798	60.179897	48.845222	79.640656	7.526901	-1.336293
3.830508	3.906269	-4.973831	99.501248	0.257049	0.747409	0.837649	2.285175	5.260590	-10.352741	10.784147	0.188219	33.003879	8.178960	0.000000	6.114495	-3.039298	4.742516	16.627022	0.290196	36.503777	-6.861023	0.000000	-0.197096	0.755600	-0.375748	-0.366027	1.004948	-0.399232	-0.323809	1.837167	-0.399232	-0.225261	1.837167	-0.328779	-0.183023	1.540820	-0.305295	-0.112621	1.170425	-0.281811	-1.407837	8.547502	-2.089797	0.000000	0.000000	8.224973	-2.463340	-3.254325	16.902399	-15.868315	60.777264	49.652977	75.743536	2.037065	2.238126	16.958005	-12.275244	59.241746	49.243995	83.205814	9.334601	-0.145164
3.847458	4.014929	-4.997679	99.941344	0.256604	0.747280	0.838171	2.489374	5.310118	-10.912666	10.949936	0.191112	33.288234	8.249935	0.000000	6.372551	-3.132801	4.912098	16.859602	0.294256	36.684144	-6.545745	0.000000	-0.195043	0.763787	-0.465582	-0.362215	1.015837	-0.494681	-0.320437	1.857073	-0.494681	-0.222915	1.857073	-0.407385	-0.181117	1.557515	-0.378286	-0.111448	1.183107	-0.349187	-1.393175	8.640116	-2.589429	0.000000	0.000000	8.169340	-2.332126	-3.293640	17.213630	-16.119562	60.982440	49.928182	78.810548	1.725376	2.577636	16.959951	-12.392593	58.319936	49.606659	85.996911	11.015544	0.972936
3.864407	4.119326	-4.999689	100.373995	0.256082	0.747151	0.838688	2.660775	5.342732	-11.587989	11.101964	0.193766	33.611654	8.494005	0.000000	6.581041	-3.217920	5.094220	17.046044	0.297510	36.845964	-6.243593	0.000000	-0.192938	0.773395	-0.551715	-0.358305	1.028615	-0.586197	-0.316977	1.880432	-0.586197	-0.220508	1.880432	-0.482751	-0.179162	1.577106	-0.448268	-0.110245	1.197988	-0.413786	-1.378135	8.748794	-3.068474	0.000000	0.000000	8.095124	-2.293909	-3.365325	17.488123	-16.350870	61.120826	50.170749	81.608905	1.480258	2.826917	16.969487	-12.446264	57.465634	49.896021	87.971561	12.588292	2.014779
3.881356	4.225162	-4.989763	100.758711	0.255540	0.747021	0.839143	2.800952	5.377458	-12.229346	11.224535	0.195905	33.928701	8.771925	0.000000	6.738876	-3.297462	5.319847	17.180199	0.299851	36.970664	-6.046140	0.000000	-0.188982	0.785335	-0.632653	-0.350959	1.044495	-0.672194	-0.310479	1.909463	-0.672194	-0.215988	1.909463	-0.553572	-0.175489	1.601455	-0.514031	-0.107985	1.216484	-0.474490	-1.349882	8.883865	-3.518629	0.000000	0.000000	8.000097	-2.331740	-3.415183	17.755918	-16.567789	61.336012	50.407331	83.966246	1.179561	2.997273	16.942339	-12.469792	56.790380	50.208738	88.667736	13.515860	2.794770
3.898305	4.324174	-4.963526	101.085621	0.254993	0.746916	0.839503	2.899016	5.407054	-12.839965	11.316017	0.197502	34.223413	9.099017	0.000000	6.836431	-3.368882	5.545902	17.259767	0.301240	37.063512	-5.905322	0.000000	-0.184467	0.798384	-0.703494	-0.342573	1.061851	-0.747463	-0.303060	1.941191	-0.747463	-0.210827	1.941191	-0.615557	-0.171296	1.628065	-0.571589	-0.105404	1.236697	-0.527621	-1.317627	9.031480	-3.912624	0.000000	0.000000	7.870920	-2.428386	-3.470725	17.997165	-16.766711	61.555527	50.626499	85.844075	0.895379	3.085074	16.892411	-12.450762	56.346174	50.486400	88.010507	13.982724	3.345481
3.915254	4.415673	-4.942051	101.389130	0.254439	0.746820	0.839789	2.969023	5.439228	-13.352433	11.358699	0.198247	34.456170	9.339014	0.000000	6.911547	-3.421110	5.852837	17.304217	0.302016	37.107126	-5.896183	0.000000	-0.177836	0.811121	-0.768427	-0.330258	1.078790	-0.816453	-0.292166	1.972158	-0.816453	-0.203248	1.972158	-0.672373	-0.165138	1.654037	-0.624347	-0.101615	1.256426	-0.576320	-1.270261	9.175557	-4.273758	0.000000	0.000000	7.738734	-2.527871	-3.538528	18.171643	-16.926986	61.610907	50.839650	87.373658	0.664601	3.215941	16.831754	-12.391161	56.112430	50.697225	86.813997	13.955889	3.709192
3.932203	4.488428	-4.926216	101.631178	0.253929	0.746743	0.839948	3.006728	5.462558	-13.759992	11.359299	0.198257	34.624798	9.531620	0.000000	6.953209	-3.450110	6.181193	17.307838	0.302079	37.109016	-5.990198	0.000000	-0.170604	0.822031	-0.820964	-0.316829	1.093301	-0.872274	-0.280286	1.998685	-0.872274	-0.194984	1.998685	-0.718343	-0.158423	1.676285	-0.667033	-0.097483	1.273325	-0.615723	-1.218609	9.298974	-4.565953	0.000000	0.000000	7.620731	-2.623478	-3.620700	18.287557	-17.050592	61.557584	51.022076	88.502609	0.386928	3.322826	16.745966	-12.303787	56.032196	50.821137	85.378661	13.478681	4.071143
3.949153	4.539822	-4.919193	101.784092	0.253514	0.746676	0.839965	3.021723	5.480802	-13.994828	11.338052	0.197886	34.724073	9.615996	0.000000	6.959832	-3.455370	6.509724	17.270261	0.301423	37.069865	-6.200814	0.000000	-0.163672	0.830542	-0.856003	-0.303956	1.104621	-0.909503	-0.268897	2.019380	-0.909503	-0.187061	2.019380	-0.749003	-0.151986	1.693641	-0.695502	-0.093522	1.286509	-0.642002	-1.169095	9.395256	-4.760832	0.000000	0.000000	7.548443	-2.732951	-3.718661	18.355439	-17.136791	61.421305	51.163243	89.207646	0.069713	3.427038	16.645720	-12.179584	55.957469	50.851680	84.556665	12.832947	4.398267
3.966102	4.565526	-4.930158	101.844232	0.253252	0.746599	0.839836	3.026933	5.494155	-14.032482	11.305064	0.197311	34.743892	9.553007	0.000000	6.947322	-3.451095	6.705313	17.208271	0.300341	37.030309	-6.347561	0.000000	-0.156068	0.834902	-0.868987	-0.289834	1.110420	-0.923298	-0.256404	2.029982	-0.923298	-0.178370	2.029982	-0.760363	-0.144925	1.702533	-0.706052	-0.089177	1.293264	-0.651740	-1.114777	9.444583	-4.833044	0.000000	0.000000	7.551074	-2.845080	-3.866123	18.362410	-17.173281	61.220519	51.232385	89.462628	-0.374149	3.452395	16.587392	-12.044170	56.101752	50.814153	83.516781	11.970062	4.652712
3.983051	4.562007	-4.957113	101.815533	0.253111	0.746503	0.839542	3.024877	5.489278	-13.952808	11.276979	0.196820	34.712799	9.443974	0.000000	6.908283	-3.416478	6.888263	17.117662	0.298760	36.953876	-6.594153	0.000000	-0.147967	0.835136	-0.864783	-0.274789	1.110730	-0.918832	-0.243094	2.030549	-0.918832	-0.169111	2.030549	-0.756685	-0.137402	1.703009	-0.702636	-0.084548	1.293625	-0.648587	-1.056911	9.447222	-4.809662	0.000000	0.000000	7.648605	-2.964804	-4.023250	18.333225	-17.155115	61.006176	51.211767	89.332203	-0.862561	3.402643	16.520393	-11.879203	56.265334	50.688451	82.437444	11.116031	4.813014
4.000000	4.531317	-4.973160	101.682017	0.253110	0.746428	0.839066	2.987878	5.475813	-13.710773	11.248769	0.196328	34.628143	9.252579	0.000000	6.806763	-3.364219	7.008986	16.987825	0.296493	36.848577	-6.895968	0.000000	-0.142364	0.832048	-0.838814	-0.264384	1.106624	-0.891239	-0.233890	2.023042	-0.891239	-0.162708	2.023042	-0.733962	-0.132199	1.696713	-0.681536	-0.081347	1.288843	-0.629110	-1.016891	9.412295	-4.665230	0.000000	0.000000	7.823416	-3.108092	-4.191150	18.287701	-17.094422	60.857188	51.094358	88.682678	-1.387540	3.274997	16.488247	-11.694650	56.571830	50.475503	81.209122	10.177211	4.852723
